<?xml version="1.0" standalone="no"?>
<!DOCTYPE svg PUBLIC "-//W3C//DTD SVG 20010904//EN"
 "http://www.w3.org/TR/2001/REC-SVG-20010904/DTD/svg10.dtd">
<svg version="1.0" xmlns="http://www.w3.org/2000/svg"
 width="1445.000000pt" height="1445.000000pt" viewBox="0 0 1445.000000 1445.000000"
 preserveAspectRatio="xMidYMid meet">
<metadata>
Created by potrace 1.11, written by Peter Selinger 2001-2013
</metadata>
<g transform="translate(0.000000,1445.000000) scale(0.100000,-0.100000)"
fill="#000000" stroke="none">
<path d="M7069 12824 c-203 -68 -464 -215 -744 -418 -167 -121 -285 -217 -499
-406 -188 -166 -532 -514 -721 -730 -27 -30 -51 -57 -55 -60 -3 -3 -64 -75
-135 -160 -72 -85 -132 -157 -136 -160 -7 -7 -245 -314 -289 -373 -19 -27 -45
-60 -56 -75 -64 -81 -295 -429 -391 -587 -143 -237 -275 -489 -367 -703 -56
-129 -159 -425 -170 -487 -2 -16 -12 -66 -21 -110 -18 -89 -21 -252 -6 -303
49 -166 307 -343 744 -512 82 -32 153 -62 159 -68 14 -14 17 -74 19 -357 1
-216 -6 -425 -17 -505 -2 -19 -6 -55 -9 -80 -16 -163 -126 -405 -265 -581 -65
-81 -75 -93 -170 -192 -300 -313 -767 -623 -1277 -847 -146 -65 -52 -228 174
-303 143 -47 324 -70 553 -70 190 -1 312 15 511 67 52 13 220 74 361 130 190
75 236 85 260 59 18 -20 86 -278 114 -433 3 -14 7 -33 10 -42 3 -9 7 -27 9
-40 3 -13 10 -48 16 -78 5 -30 12 -66 15 -80 3 -14 11 -56 19 -95 8 -38 16
-81 19 -95 41 -228 55 -288 96 -410 155 -466 587 -1157 790 -1260 54 -28 123
-30 173 -5 60 28 70 52 71 163 0 93 -9 279 -18 352 -3 19 -7 60 -10 90 -3 30
-8 81 -11 113 -4 32 -8 68 -11 80 -2 12 -7 73 -11 134 -5 99 -4 113 11 119 25
9 48 -25 130 -191 82 -166 167 -372 341 -820 160 -413 193 -490 237 -564 21
-34 38 -67 38 -71 0 -5 3 -10 8 -12 4 -1 19 -21 35 -43 45 -66 139 -155 191
-182 40 -20 60 -24 100 -20 42 4 55 10 87 45 43 46 68 118 74 214 2 35 6 113
10 173 3 61 8 137 10 170 2 33 7 105 10 160 12 213 15 252 20 325 2 41 7 122
11 180 3 58 7 130 9 160 2 30 7 98 10 150 4 52 8 106 10 120 2 14 6 63 10 110
3 47 8 103 11 125 2 22 7 60 9 85 18 166 21 178 36 196 12 15 49 10 60 -9 4
-5 10 -44 14 -86 4 -42 8 -83 10 -91 1 -8 5 -51 9 -95 4 -44 9 -100 11 -125 2
-25 6 -88 10 -140 3 -52 7 -117 10 -145 6 -77 16 -241 30 -475 8 -152 15 -260
20 -335 3 -38 7 -106 10 -150 19 -352 21 -377 36 -422 38 -118 114 -163 220
-132 54 17 164 121 231 220 92 136 125 211 313 699 37 96 73 189 80 205 8 17
26 62 41 100 60 156 180 436 226 523 78 150 110 183 122 124 6 -25 1 -133 -9
-192 -2 -14 -7 -59 -10 -100 -4 -41 -9 -82 -10 -91 -2 -9 -6 -52 -10 -95 -4
-43 -9 -95 -11 -114 -11 -96 -14 -335 -4 -370 9 -33 18 -42 63 -64 82 -39 165
-18 260 65 60 53 185 215 279 359 79 121 198 326 198 340 0 5 3 10 8 12 4 2
24 37 44 78 132 269 203 462 239 650 11 58 27 141 35 185 9 44 18 91 20 105 2
14 9 45 14 70 5 25 12 56 14 70 10 56 69 321 92 415 51 203 58 214 127 200 32
-7 137 -46 192 -71 139 -63 397 -145 535 -171 247 -46 646 -31 860 33 136 40
248 122 268 195 12 43 -6 90 -39 106 -13 7 -103 50 -199 96 -178 86 -364 189
-478 265 -35 23 -66 42 -69 42 -3 0 -22 13 -43 30 -21 16 -42 30 -48 30 -6 0
-12 3 -14 8 -1 4 -30 27 -63 51 -165 122 -366 302 -470 422 -196 225 -327 475
-351 672 -3 23 -7 56 -9 72 -18 124 -26 809 -11 869 4 16 20 28 53 41 476 177
766 353 844 511 43 88 35 274 -21 494 -72 282 -275 736 -490 1095 -151 253
-475 727 -602 880 -9 11 -63 79 -120 150 -56 72 -105 132 -108 135 -3 3 -30
34 -61 70 -30 36 -63 76 -74 88 -11 13 -28 33 -38 45 -177 211 -613 657 -827
847 -47 41 -87 77 -90 81 -14 16 -254 208 -352 281 -387 290 -784 490 -962
486 -21 -1 -83 -16 -137 -34z"/>
</g>
</svg>
